# xmcd CD database file
#
# Track frame offsets:
#	150
#	28892
#	62200
#	90251
#	125084
#	151701
#	184138
#	211664
#	242893
#	275661
#	303215
#	323086
#
# Disc length: 4456 seconds
#
# Revision: 1
# Processed by: cddbd v1.4PL0 Copyright (c) Steve Scherf et al.
# Submitted via: CDex 1.40Beta6
#
DISCID=a011660c
DTITLE=cesar del rio - balearic
DYEAR=1900
DGENRE=House
TTITLE0=luna latina
TTITLE1=coming soon frequencies part II
TTITLE2=sky-lovesick
TTITLE3=siempre juntos
TTITLE4=geminis
TTITLE5=coming soon frequencies
TTITLE6=summer love
TTITLE7=carioca
TTITLE8=cabrona
TTITLE9=iemanja
TTITLE10=ambient frequencies
TTITLE11=cabrona ambient
EXTD=
EXTT0=
EXTT1=
EXTT2=
EXTT3=
EXTT4=
EXTT5=
EXTT6=
EXTT7=
EXTT8=
EXTT9=
EXTT10=
EXTT11=
PLAYORDER=
